<?xml version="1.0" encoding="utf-8"?>
<!-- Generator: Adobe Illustrator 18.0.0, SVG Export Plug-In . SVG Version: 6.00 Build 0)  -->
<!DOCTYPE svg PUBLIC "-//W3C//DTD SVG 1.1//EN" "http://www.w3.org/Graphics/SVG/1.1/DTD/svg11.dtd">
<svg version="1.1" id="Layer_1" xmlns="http://www.w3.org/2000/svg" xmlns:xlink="http://www.w3.org/1999/xlink" x="0px" y="0px"
	 width="717.3px" height="114.7px" viewBox="0 0 717.3 114.7" style="enable-background:new 0 0 717.3 114.7;" xml:space="preserve"
	>
<g>
	<g>
		<polygon style="fill:#FFFFFF;" points="110,35.3 92,35.8 86.7,27 71,17.7 52,15.3 35,15.7 26.3,22 27.3,29.7 35.3,37.7 59.7,46.3 
			81,49 98,55.7 108,70 109.7,84 106.3,98 93,109 71,114.3 45.7,112.7 23.3,104.7 8,89.3 0,74 20.7,73.3 29.3,87.3 51.7,98.7 
			66,98.7 81,94.3 87,87 87,76 80.7,67.7 66.7,61.7 41.3,58 18,49 2.7,34 0,23 5,15 27,3 53.3,0 84.3,4.3 97.7,10 107.3,20.3 		"/>
		<polygon style="fill:#FFFFFF;" points="121.7,0 160.3,0.3 216.3,2.3 220,19 196.7,19 152.3,18.3 145,19.3 144.3,33 145.3,53.3 
			172,56.3 208,55.3 207,71 175.3,71.3 149,73.3 148,85.7 150,93 174.3,95.3 197.7,94 219,95 218,114.3 198.7,114 163.7,112.7 
			122.3,114.3 122,94.3 123.3,47.7 		"/>
		<path style="fill:#FFFFFF;" d="M318.3,87.7L308,62l-19.3-37.7L277,0l-21.3,1.7l-13.3,47.7l-10.7,27.3L223,114h19l6.7-29.3
			l5.7-16.3l18.3,2l20.3,4L305.7,97l7.3,17.7l18.3-3L318.3,87.7z M257.7,54l5.3-17.7l7.3-15l10.3,20L288,59L257.7,54z"/>
		<polygon style="fill:#FFFFFF;" points="341.3,11.3 351.7,10 351.7,35 352.7,66.3 341.3,65.3 340,38.7 		"/>
		<polygon style="fill:#FFFFFF;" points="360,11.3 369,10.3 380.7,31.3 392.7,57 394.3,32.3 393,10 400.7,10.3 400.3,39 403,66 
			388.7,66.3 380,49.7 368.3,30 367.3,50.3 369.3,66 359,66.7 358.3,38.7 		"/>
		<polygon style="fill:#FFFFFF;" points="323.7,76.7 337.5,76.2 354.7,76.7 359.8,76.2 359.5,81.7 346,81 345.7,93.7 347,109.3 
			341,109.3 340.8,95.7 340.3,82.2 334,80.8 324.3,81.3 		"/>
		<polygon style="fill:#FFFFFF;" points="362,76.3 368.2,76 368.2,83.3 368.8,89.5 377.5,90.2 383.5,88.8 383.7,76.3 390,76.7 
			389.3,93.2 390.2,109.2 384,109.2 384,102.3 382.8,95.2 370.5,94.3 367.5,94.7 368.2,109.3 361.2,109.5 362.2,96.7 		"/>
		<polygon style="fill:#FFFFFF;" points="393.7,76.2 404.7,75.7 421.2,76.8 422.3,81.5 412.7,81 400.7,81.8 400,89 400.8,92 
			408,92.5 418.5,92 418.7,97.2 409.3,96.5 401.5,97.5 401.7,103.3 411.7,104 421.8,103.8 421.7,109.5 406,108.7 394,109.5 
			394.3,98.3 		"/>
		<polygon style="fill:#FFFFFF;" points="539.2,34.8 520.2,35.3 514.2,27.8 500,17.8 476.2,14.8 461.5,16.6 456,20.8 454.8,27.6 
			462,36.6 490.2,45.3 513,49.8 527.5,56.3 535.5,68.8 537.5,88.8 532,100.8 521.5,108.3 493.5,114.1 468,111.1 444.2,98.8 
			433.8,86.1 429,73.8 448.8,73.8 455.8,85.1 475,96.8 492.8,98.1 506.2,96.1 514.5,88.6 515.5,78.8 509.8,67.3 492,61.3 
			461.5,54.8 444.2,47.3 434,38.6 429,29.6 429.2,20.8 438.5,10.8 464.8,0.8 498.5,0.6 520.5,7.6 533.5,17.3 		"/>
		<polygon style="fill:#FFFFFF;" points="550.3,0 571,2.3 569.3,22.7 570.7,48.7 590.7,28.7 614,1.3 629.7,10 612.7,27.3 600.3,47 
			609.3,80 621.7,114.3 604.3,114 593.7,81 586.7,57.7 575,66.3 569.7,72.7 567.7,93.7 568.7,113 549.7,112.3 548.7,77 549.7,29.3 
					"/>
		<polygon style="fill:#FFFFFF;" points="632.3,0 648,0.7 657.7,22.7 672,45.7 685,30.3 703.7,1.3 717.3,3.7 701.3,30 688,47.7 
			677.3,62.7 679,86.3 677.7,113.7 662.3,114 665,90.3 665.3,64 650.7,37 		"/>
	</g>
</g>
</svg>
